<svg width="246.628" height="246.628" xml:space="preserve" xmlns="http://www.w3.org/2000/svg"><g style="fill:#222;fill-opacity:1"><path style="fill:#0000ea;fill-opacity:1" d="M227.745-51.944h67.5v67.5h-67.5z" transform="rotate(45 146.83 -11.032) scale(.8612)"/></g><path style="fill:#e50000;fill-opacity:1" d="M96.492 79.309h67.5v67.5h-67.5z" transform="rotate(45 144.548 -16.542) scale(.8612)"/><path style="fill:#00d3dd;fill-opacity:1" d="M96.492 79.309h67.5v67.5h-67.5z" transform="rotate(45 185.653 82.694) scale(.8612)"/><path style="fill:#820080;fill-opacity:1" d="M96.492 79.309h67.5v67.5h-67.5z" transform="rotate(45 115.483 53.629) scale(.8612)"/><path style="fill:#0083c7;fill-opacity:1" d="M96.492 79.309h67.5v67.5h-67.5z" transform="rotate(45 156.588 152.864) scale(.8612)"/><path style="fill:#ffa7d1;fill-opacity:1" d="M96.492 79.309h67.5v67.5h-67.5z" transform="rotate(45 45.312 24.563) scale(.8612)"/><path style="fill:#94e044;fill-opacity:1" d="M96.492 79.309h67.5v67.5h-67.5z" transform="rotate(45 127.522 223.034) scale(.8612)"/><path style="fill:#a06a42;fill-opacity:1" d="M96.492 79.309h67.5v67.5h-67.5z" transform="rotate(45 16.247 94.734) scale(.8612)"/><path style="fill:#888;fill-opacity:1" d="M96.492 79.309h67.5v67.5h-67.5z" transform="rotate(45 57.352 193.97) scale(.8612)"/><path style="fill:#e5d900;fill-opacity:1" d="M96.492 79.309h67.5v67.5h-67.5z" transform="rotate(45 -53.923 65.668) scale(.8612)"/><path style="fill:#e59500;fill-opacity:1" d="M96.492 79.309h67.5v67.5h-67.5z" transform="rotate(45 -12.818 164.904) scale(.8612)"/><path style="fill:#02be01;fill-opacity:1" d="M96.492 79.309h67.5v67.5h-67.5z" transform="rotate(45 28.287 264.14) scale(.8612)"/><path style="fill:#222;fill-opacity:1;stroke-width:1.41552" d="M83.373 185.005V69.999h79.381v115.006z"/><path fill="#f05133" d="m61.614 72.27.004 102.097c-.002 5.877 4.784 10.645 10.688 10.646l21.284-.001V158.12c-4.197-2.07-7.084-6.361-7.083-11.343.003-5.01 2.926-9.326 7.16-11.38v-25.92c-4.231-2.055-7.162-6.37-7.158-11.382 0-7 5.692-12.67 12.72-12.67 7.028 0 12.72 5.67 12.721 12.674-.002 5.265-3.23 9.783-7.824 11.693v24.173l31.93-31.804a12.735 12.735 0 0 1-.678-4.064c0-6.998 5.691-12.668 12.722-12.673 7.026.001 12.72 5.674 12.718 12.669-.005 7.004-5.696 12.673-12.722 12.673a12.78 12.78 0 0 1-4.907-.979l-32.226 32.1c.635 1.505.987 3.153.983 4.89.002 5.3-3.263 9.829-7.896 11.724l-.003 26.513h70.275c5.906-.001 10.693-4.77 10.692-10.651l-.001-102.095c.001-5.879-4.784-10.645-10.69-10.648l-102.011-.006c-5.904.002-10.693 4.771-10.693 10.652" style="stroke-width:1.45417"/></svg>