<svg width="246.628" height="246.628" xml:space="preserve" xmlns="http://www.w3.org/2000/svg"><path style="fill:#222;fill-opacity:1" d="M96.492 79.309h67.5v67.5h-67.5z" transform="rotate(45 86.417 123.799) scale(.8612)"/><g style="fill:#222;fill-opacity:1"><path style="fill:#0000ea;fill-opacity:1" d="M227.745-51.944h67.5v67.5h-67.5z" transform="rotate(45 146.83 -11.032) scale(.8612)"/></g><path style="fill:#e50000;fill-opacity:1" d="M96.492 79.309h67.5v67.5h-67.5z" transform="rotate(45 144.548 -16.542) scale(.8612)"/><path style="fill:#00d3dd;fill-opacity:1" d="M96.492 79.309h67.5v67.5h-67.5z" transform="rotate(45 185.653 82.694) scale(.8612)"/><path style="fill:#820080;fill-opacity:1" d="M96.492 79.309h67.5v67.5h-67.5z" transform="rotate(45 115.483 53.629) scale(.8612)"/><path style="fill:#0083c7;fill-opacity:1" d="M96.492 79.309h67.5v67.5h-67.5z" transform="rotate(45 156.588 152.864) scale(.8612)"/><path style="fill:#ffa7d1;fill-opacity:1" d="M96.492 79.309h67.5v67.5h-67.5z" transform="rotate(45 45.312 24.563) scale(.8612)"/><path style="fill:#94e044;fill-opacity:1" d="M96.492 79.309h67.5v67.5h-67.5z" transform="rotate(45 127.522 223.034) scale(.8612)"/><path style="fill:#a06a42;fill-opacity:1" d="M96.492 79.309h67.5v67.5h-67.5z" transform="rotate(45 16.247 94.734) scale(.8612)"/><path style="fill:#888;fill-opacity:1" d="M96.492 79.309h67.5v67.5h-67.5z" transform="rotate(45 57.352 193.97) scale(.8612)"/><path style="fill:#e5d900;fill-opacity:1" d="M96.492 79.309h67.5v67.5h-67.5z" transform="rotate(45 -53.923 65.668) scale(.8612)"/><path style="fill:#e59500;fill-opacity:1" d="M96.492 79.309h67.5v67.5h-67.5z" transform="rotate(45 -12.818 164.904) scale(.8612)"/><path style="fill:#02be01;fill-opacity:1" d="M96.492 79.309h67.5v67.5h-67.5z" transform="rotate(45 28.287 264.14) scale(.8612)"/></svg>